ffmpeg version 4.2.4-1ubuntu0.1 Copyright (c) 2000-2020 the FFmpeg developers
  built with gcc 9 (Ubuntu 9.3.0-10ubuntu2)
  configuration: --prefix=/usr --extra-version=1ubuntu0.1 --toolchain=hardened --libdir=/usr/lib/x86_64-linux-gnu --incdir=/usr/include/x86_64-linux-gnu --arch=amd64 --enable-gpl --disable-stripping --enable-avresample --disable-filter=resample --enable-avisynth --enable-gnutls --enable-ladspa --enable-libaom --enable-libass --enable-libbluray --enable-libbs2b --enable-libcaca --enable-libcdio --enable-libcodec2 --enable-libflite --enable-libfontconfig --enable-libfreetype --enable-libfribidi --enable-libgme --enable-libgsm --enable-libjack --enable-libmp3lame --enable-libmysofa --enable-libopenjpeg --enable-libopenmpt --enable-libopus --enable-libpulse --enable-librsvg --enable-librubberband --enable-libshine --enable-libsnappy --enable-libsoxr --enable-libspeex --enable-libssh --enable-libtheora --enable-libtwolame --enable-libvidstab --enable-libvorbis --enable-libvpx --enable-libwavpack --enable-libwebp --enable-libx265 --enable-libxml2 --enable-libxvid --enable-libzmq --enable-libzvbi --enable-lv2 --enable-omx --enable-openal --enable-opencl --enable-opengl --enable-sdl2 --enable-libdc1394 --enable-libdrm --enable-libiec61883 --enable-nvenc --enable-chromaprint --enable-frei0r --enable-libx264 --enable-shared
  libavutil      56. 31.100 / 56. 31.100
  libavcodec     58. 54.100 / 58. 54.100
  libavformat    58. 29.100 / 58. 29.100
  libavdevice    58.  8.100 / 58.  8.100
  libavfilter     7. 57.100 /  7. 57.100
  libavresample   4.  0.  0 /  4.  0.  0
  libswscale      5.  5.100 /  5.  5.100
  libswresample   3.  5.100 /  3.  5.100
  libpostproc    55.  5.100 / 55.  5.100
Input #0, image2, from '/tmp/jl_7mUW4P/proc1_%04d.png':
  Duration: 00:00:04.52, start: 0.000000, bitrate: N/A
    Stream #0:0: Video: png, rgb24(pc), 1200x600, 25 fps, 25 tbr, 25 tbn, 25 tbc
Stream mapping:
  Stream #0:0 -> #0:0 (png (native) -> h264 (libx264))
Press [q] to stop, [?] for help
[libx264 @ 0x55781631a540] using cpu capabilities: MMX2 SSE2Fast SSSE3 SSE4.2 AVX FMA3 BMI2 AVX2
[libx264 @ 0x55781631a540] profile High, level 3.1
[libx264 @ 0x55781631a540] 264 - core 155 r2917 0a84d98 - H.264/MPEG-4 AVC codec - Copyleft 2003-2018 - http://www.videolan.org/x264.html - options: cabac=1 ref=3 deblock=1:0:0 analyse=0x3:0x113 me=hex subme=7 psy=1 psy_rd=1.00:0.00 mixed_ref=1 me_range=16 chroma_me=1 trellis=1 8x8dct=1 cqm=0 deadzone=21,11 fast_pskip=1 chroma_qp_offset=-2 threads=3 lookahead_threads=1 sliced_threads=0 nr=0 decimate=1 interlaced=0 bluray_compat=0 constrained_intra=0 bframes=3 b_pyramid=2 b_adapt=1 b_bias=0 direct=1 weightb=1 open_gop=0 weightp=2 keyint=250 keyint_min=25 scenecut=40 intra_refresh=0 rc_lookahead=40 rc=crf mbtree=1 crf=23.0 qcomp=0.60 qpmin=0 qpmax=69 qpstep=4 ip_ratio=1.40 aq=1:1.00
Output #0, mp4, to 'vorticity_proc1.mp4':
  Metadata:
    encoder         : Lavf58.29.100
    Stream #0:0: Video: h264 (libx264) (avc1 / 0x31637661), yuv420p, 1200x600, q=-1--1, 25 fps, 12800 tbn, 25 tbc
    Metadata:
      encoder         : Lavc58.54.100 libx264
    Side data:
      cpb: bitrate max/min/avg: 0/0/0 buffer size: 0 vbv_delay: -1
frame=   16 fps=0.0 q=0.0 size=       0kB time=00:00:00.00 bitrate=N/A speed=   0x    frame=   41 fps= 41 q=0.0 size=       0kB time=00:00:00.00 bitrate=N/A speed=   0x    frame=   49 fps= 26 q=28.0 size=       0kB time=-00:00:00.03 bitrate=N/A speed=N/A    frame=   54 fps= 22 q=28.0 size=       0kB time=00:00:00.16 bitrate=   2.4kbits/s speed=0.0648x    frame=   57 fps= 19 q=28.0 size=       0kB time=00:00:00.28 bitrate=   1.4kbits/s speed=0.0927x    frame=   61 fps= 16 q=28.0 size=       0kB time=00:00:00.44 bitrate=   0.9kbits/s speed=0.118x    frame=   65 fps= 15 q=28.0 size=       0kB time=00:00:00.60 bitrate=   0.6kbits/s speed=0.138x    frame=   69 fps= 14 q=28.0 size=       0kB time=00:00:00.76 bitrate=   0.5kbits/s speed=0.15x    frame=   73 fps= 13 q=28.0 size=       0kB time=00:00:00.92 bitrate=   0.4kbits/s speed=0.16x    frame=   77 fps= 12 q=28.0 size=       0kB time=00:00:01.08 bitrate=   0.4kbits/s speed=0.166x    frame=   80 fps= 11 q=28.0 size=       0kB time=00:00:01.20 bitrate=   0.3kbits/s speed=0.169x    frame=   83 fps= 11 q=28.0 size=       0kB time=00:00:01.32 bitrate=   0.3kbits/s speed=0.171x    frame=   87 fps= 10 q=28.0 size=       0kB time=00:00:01.48 bitrate=   0.3kbits/s speed=0.173x    frame=   91 fps=9.6 q=28.0 size=       0kB time=00:00:01.64 bitrate=   0.2kbits/s speed=0.173x    frame=   95 fps=9.2 q=28.0 size=       0kB time=00:00:01.80 bitrate=   0.2kbits/s speed=0.174x    frame=   99 fps=8.9 q=28.0 size=       0kB time=00:00:01.96 bitrate=   0.2kbits/s speed=0.176x    frame=  103 fps=8.6 q=28.0 size=       0kB time=00:00:02.12 bitrate=   0.2kbits/s speed=0.176x    frame=  107 fps=8.4 q=28.0 size=       0kB time=00:00:02.28 bitrate=   0.2kbits/s speed=0.178x    frame=  111 fps=8.1 q=28.0 size=       0kB time=00:00:02.44 bitrate=   0.2kbits/s speed=0.179x    frame=  114 fps=7.9 q=28.0 size=       0kB time=00:00:02.56 bitrate=   0.1kbits/s speed=0.177x    frame=  118 fps=7.7 q=28.0 size=       0kB time=00:00:02.72 bitrate=   0.1kbits/s speed=0.178x    frame=  122 fps=7.6 q=28.0 size=       0kB time=00:00:02.88 bitrate=   0.1kbits/s speed=0.179x    frame=  126 fps=7.5 q=28.0 size=       0kB time=00:00:03.04 bitrate=   0.1kbits/s speed=0.18x    frame=  130 fps=7.4 q=28.0 size=     256kB time=00:00:03.20 bitrate= 655.5kbits/s speed=0.182x    frame=  134 fps=7.4 q=28.0 size=     256kB time=00:00:03.36 bitrate= 624.3kbits/s speed=0.185x    frame=  138 fps=7.4 q=28.0 size=     256kB time=00:00:03.52 bitrate= 595.9kbits/s speed=0.188x    frame=  142 fps=7.3 q=28.0 size=     256kB time=00:00:03.68 bitrate= 570.0kbits/s speed=0.189x    frame=  146 fps=7.3 q=28.0 size=     256kB time=00:00:03.84 bitrate= 546.2kbits/s speed=0.191x    frame=  150 fps=7.2 q=28.0 size=     256kB time=00:00:04.00 bitrate= 524.4kbits/s speed=0.193x    frame=  154 fps=7.2 q=28.0 size=     256kB time=00:00:04.16 bitrate= 504.2kbits/s speed=0.194x    frame=  158 fps=7.2 q=28.0 size=     256kB time=00:00:04.32 bitrate= 485.5kbits/s speed=0.196x    frame=  162 fps=7.1 q=28.0 size=     256kB time=00:00:04.48 bitrate= 468.2kbits/s speed=0.197x    frame=  166 fps=7.1 q=28.0 size=     256kB time=00:00:04.64 bitrate= 452.0kbits/s speed=0.198x    frame=  170 fps=7.0 q=28.0 size=     256kB time=00:00:04.80 bitrate= 437.0kbits/s speed=0.199x    frame=  174 fps=7.0 q=28.0 size=     256kB time=00:00:04.96 bitrate= 422.9kbits/s speed= 0.2x    frame=  178 fps=6.9 q=28.0 size=     256kB time=00:00:05.12 bitrate= 409.7kbits/s speed= 0.2x    frame=  183 fps=7.0 q=28.0 size=     256kB time=00:00:05.32 bitrate= 394.3kbits/s speed=0.202x    frame=  186 fps=6.9 q=28.0 size=     256kB time=00:00:05.44 bitrate= 385.6kbits/s speed=0.201x    frame=  190 fps=6.8 q=28.0 size=     256kB time=00:00:05.60 bitrate= 374.6kbits/s speed=0.201x    frame=  194 fps=6.8 q=28.0 size=     256kB time=00:00:05.76 bitrate= 364.2kbits/s speed=0.202x    frame=  198 fps=6.8 q=28.0 size=     256kB time=00:00:05.92 bitrate= 354.3kbits/s speed=0.203x    frame=  202 fps=6.8 q=28.0 size=     256kB time=00:00:06.08 bitrate= 345.0kbits/s speed=0.204x    frame=  205 fps=6.8 q=28.0 size=     256kB time=00:00:06.20 bitrate= 338.3kbits/s speed=0.205x    frame=  208 fps=6.7 q=28.0 size=     256kB time=00:00:06.32 bitrate= 331.9kbits/s speed=0.205x    frame=  212 fps=6.7 q=28.0 size=     256kB time=00:00:06.48 bitrate= 323.7kbits/s speed=0.206x    frame=  216 fps=6.7 q=28.0 size=     256kB time=00:00:06.64 bitrate= 315.9kbits/s speed=0.206x    frame=  220 fps=6.7 q=28.0 size=     256kB time=00:00:06.80 bitrate= 308.5kbits/s speed=0.207x    frame=  224 fps=6.7 q=28.0 size=     512kB time=00:00:06.96 bitrate= 602.7kbits/s speed=0.208x    frame=  228 fps=6.7 q=28.0 size=     512kB time=00:00:07.12 bitrate= 589.1kbits/s speed=0.21x    frame=  232 fps=6.7 q=28.0 size=     512kB time=00:00:07.28 bitrate= 576.2kbits/s speed=0.21x    frame=  236 fps=6.7 q=28.0 size=     512kB time=00:00:07.44 bitrate= 563.8kbits/s speed=0.21x    frame=  240 fps=6.7 q=28.0 size=     512kB time=00:00:07.60 bitrate= 551.9kbits/s speed=0.211x    frame=  244 fps=6.6 q=28.0 size=     512kB time=00:00:07.76 bitrate= 540.5kbits/s speed=0.211x    frame=  248 fps=6.6 q=28.0 size=     512kB time=00:00:07.92 bitrate= 529.6kbits/s speed=0.211x    frame=  252 fps=6.6 q=28.0 size=     512kB time=00:00:08.08 bitrate= 519.1kbits/s speed=0.211x    frame=  255 fps=6.5 q=28.0 size=     512kB time=00:00:08.20 bitrate= 511.5kbits/s speed=0.21x    frame=  258 fps=6.5 q=28.0 size=     512kB time=00:00:08.32 bitrate= 504.2kbits/s speed=0.21x    frame=  262 fps=6.5 q=28.0 size=     512kB time=00:00:08.48 bitrate= 494.7kbits/s speed=0.21x    frame=  266 fps=6.4 q=28.0 size=     512kB time=00:00:08.64 bitrate= 485.5kbits/s speed=0.209x    frame=  270 fps=6.4 q=28.0 size=     512kB time=00:00:08.80 bitrate= 476.7kbits/s speed=0.21x    frame=  274 fps=6.4 q=28.0 size=     512kB time=00:00:08.96 bitrate= 468.2kbits/s speed=0.21x    frame=  278 fps=6.4 q=28.0 size=     512kB time=00:00:09.12 bitrate= 459.9kbits/s speed=0.21x    frame=  282 fps=6.4 q=28.0 size=     512kB time=00:00:09.28 bitrate= 452.0kbits/s speed=0.21x    frame=  283 fps=5.6 q=-1.0 Lsize=     826kB time=00:00:11.20 bitrate= 604.0kbits/s speed=0.22x    
video:822kB audio:0kB subtitle:0kB other streams:0kB global headers:0kB muxing overhead: 0.500685%
[libx264 @ 0x55781631a540] frame I:2     Avg QP:17.03  size: 38421
[libx264 @ 0x55781631a540] frame P:73    Avg QP:25.14  size:  8194
[libx264 @ 0x55781631a540] frame B:208   Avg QP:18.90  size:   797
[libx264 @ 0x55781631a540] consecutive B-frames:  0.7%  2.8%  3.2% 93.3%
[libx264 @ 0x55781631a540] mb I  I16..4: 33.0% 39.9% 27.1%
[libx264 @ 0x55781631a540] mb P  I16..4:  0.3%  1.5%  0.9%  P16..4:  5.8%  6.7%  4.5%  0.0%  0.0%    skip:80.1%
[libx264 @ 0x55781631a540] mb B  I16..4:  0.1%  0.1%  0.0%  B16..8:  6.9%  1.0%  0.4%  direct: 0.3%  skip:91.2%  L0:44.6% L1:47.3% BI: 8.0%
[libx264 @ 0x55781631a540] 8x8 transform intra:46.1% inter:39.0%
[libx264 @ 0x55781631a540] coded y,uvDC,uvAC intra: 39.8% 41.5% 33.4% inter: 2.7% 2.2% 0.7%
[libx264 @ 0x55781631a540] i16 v,h,dc,p: 70% 17% 10%  3%
[libx264 @ 0x55781631a540] i8 v,h,dc,ddl,ddr,vr,hd,vl,hu: 23% 12% 34%  5%  5%  4%  6%  4%  6%
[libx264 @ 0x55781631a540] i4 v,h,dc,ddl,ddr,vr,hd,vl,hu: 29% 18% 17%  5%  6%  5%  9%  4%  8%
[libx264 @ 0x55781631a540] i8c dc,h,v,p: 70% 13% 12%  5%
[libx264 @ 0x55781631a540] Weighted P-Frames: Y:0.0% UV:0.0%
[libx264 @ 0x55781631a540] ref P L0: 69.2% 15.2% 10.6%  4.9%
[libx264 @ 0x55781631a540] ref B L0: 85.9% 11.3%  2.7%
[libx264 @ 0x55781631a540] ref B L1: 98.1%  1.9%
[libx264 @ 0x55781631a540] kb/s:594.18
